<svg width="20" height="20" viewBox="0 0 50 50" fill="none" xmlns="http://www.w3.org/2000/svg">
<circle cx="25" cy="25" r="24.5" fill="#FFD600" stroke="#3F370C"/>
<rect x="11.5" y="36.5" width="27" height="4.5" fill="#1A1A1A"/>
<rect x="11.5" y="36" width="16.5" height="6" transform="rotate(-90 11.5 36)" fill="#1A1A1A"/>
<rect x="32.5" y="36" width="16.5" height="6" transform="rotate(-90 32.5 36)" fill="#1A1A1A"/>
<rect x="25.5" y="36" width="16.5" height="6" transform="rotate(-90 25.5 36)" fill="#1A1A1A"/>
<rect x="18.5" y="36" width="16.5" height="6" transform="rotate(-90 18.5 36)" fill="#1A1A1A"/>
<path d="M38.9999 19C38.9999 25.3513 30.5001 30.5 15.25 30C4.89466 30 9.2498 26.8513 9.2498 20.5C9.2498 14.1487 8.14453 15.25 18.4999 15.25C28.8552 15.25 38.9999 12.6487 38.9999 19Z" fill="#FFD600"/>
<path d="M38.2321 11.3259C37.5014 17.5458 35.6091 21.6304 31.6056 24.2017C27.6242 26.7588 21.4683 27.8813 12.0244 27.919C12.0229 27.789 12.021 27.6666 12.0191 27.5517C12.0184 27.5095 12.0177 27.4684 12.017 27.4285C12.0136 27.2276 12.0106 27.0543 12.0103 26.901C12.0095 26.5326 12.027 26.3592 12.0529 26.2736C12.0529 26.2736 12.0529 26.2736 12.0529 26.2736C12.1601 26.2507 12.3542 26.2517 12.7524 26.2797C12.8403 26.2858 12.9341 26.2929 13.034 26.3004C14.6948 26.4251 18.0659 26.6784 24.8537 25.2391C32.6324 23.5898 36.2556 16.88 36.488 10.6419C37.1693 10.7463 37.7362 10.6146 38.0854 10.5335C38.159 10.5164 38.2229 10.5015 38.2762 10.4916C38.279 10.5247 38.2811 10.5644 38.2817 10.6115C38.2841 10.7776 38.2694 11.0081 38.2321 11.3259Z" fill="#191919" stroke="black"/>
<path d="M33.3222 12.597L37.5227 6.46469L40.6015 13.2301L33.3222 12.597Z" fill="#191919" stroke="black"/>
</svg>
